<svg id="Layer_1" data-name="Layer 1" xmlns="http://www.w3.org/2000/svg" viewBox="0 0 512 512"><path d="M152.39,201.31c27,22.53,53,44.26,79,66.09a7.92,7.92,0,0,1,2.45,4.36c5.91,33.4,11.71,66.81,17.76,101.56-3.11-1.34-5.14-2-7-3-28.93-16.6-57.91-33.14-86.66-50.06-2.88-1.7-6.23-5.71-6.27-8.68-.42-35.39-.26-70.8-.22-106.2A27.73,27.73,0,0,1,152.39,201.31Z"/><path d="M155.69,194.21l70.27-41c8.45-4.93,16.77-10.08,25.44-14.59,2.28-1.18,6.25-1.49,8.36-.29,31.46,18,62.74,36.23,94,54.44.46.27.76.83,1.59,1.76-23.66,8.69-47.64,16-70.33,26.25-20,9-37.93,9.07-58,0C204.42,210.56,180.4,203.26,155.69,194.21Z"/><path d="M359,202.39c.66,1,1.22,1.4,1.22,1.83.2,36.21.4,72.42.39,108.62,0,1.91-1.32,4.68-2.87,5.59-31.73,18.45-63.58,36.7-97.14,56,.67-4.57,1-7.5,1.54-10.41,5-28.88,9.79-57.81,15.27-86.6A25.2,25.2,0,0,1,285,264c22.18-19.16,44.84-37.75,67.37-56.51C354.47,205.69,356.73,204.1,359,202.39Z"/></svg>