<svg id="Layer_1" data-name="Layer 1" xmlns="http://www.w3.org/2000/svg" viewBox="0 0 1336.65 410.41"><defs><style>.cls-1{stroke:#000;}.cls-1,.cls-3{stroke-miterlimit:10;}.cls-2{fill:#fff;}.cls-3{font-size:17px;fill:#b3b3b3;stroke:#b3b3b3;font-family:Mont-ExtraLightDEMO, Mont;font-weight:200;letter-spacing:0.2em;}.cls-4{letter-spacing:0.17em;}.cls-5{letter-spacing:0.19em;}.cls-6{letter-spacing:0.18em;}.cls-7{letter-spacing:0.17em;}.cls-8{letter-spacing:0.17em;}.cls-9{letter-spacing:0.16em;}.cls-10{fill:#4d4d4d;}</style></defs><rect class="cls-1" width="1336.65" height="410.41"/><path class="cls-2" d="M819.57,226.88h-9.75c0-2.64-.06-5.21,0-7.78a1.79,1.79,0,0,0-1.5-2.11A16.52,16.52,0,0,1,797,198.22a16.71,16.71,0,0,1,16.63-14c7.34,0,12.89,3.21,15.92,9.92,2.91,6.43,1.93,12.65-2.72,18-1.58,1.8-3.86,3-6,4.3a2,2,0,0,0-1.27,2C819.62,221.19,819.57,223.94,819.57,226.88Zm1-25.87a6.62,6.62,0,0,0-6.7-6.94,6.7,6.7,0,0,0-6.79,7.06,6.75,6.75,0,1,0,13.49-.12Z"/><path class="cls-2" d="M561.8,217.36V185a2.86,2.86,0,0,1,.67-.17c5.18,0,10.36,0,15.54.08a14.15,14.15,0,0,1,3.8.7c3.28,1,6,2.85,6.64,6.49s-.55,6.54-3.82,8.64c.42.33.75.6,1.09.85,5.29,3.72,4.87,11.12-.94,14a16.84,16.84,0,0,1-6.3,1.67c-4.71.26-9.45.12-14.19.14Zm10.58-8c1.49,0,2.88,0,4.27,0a2,2,0,0,0,2.13-2,1.92,1.92,0,0,0-1.76-2.28,44.79,44.79,0,0,0-4.64,0Zm0-12.24a24.38,24.38,0,0,0,4.3-.07,2.85,2.85,0,0,0,1.79-1.61,1.56,1.56,0,0,0-1.38-2.11c-1.53-.2-3.08-.2-4.71-.29Z"/><path class="cls-2" d="M736.75,201.25l-2.93-.16v-7.78c2.61.8,3.08-.91,3.84-2.8,1.57-3.92,6.45-6.45,11.42-6.21v7.43l-2.38,1,.15.61c.81,0,1.62,0,2.43,0,2-.09,3-1,3.11-3,.07-.9,0-1.8,0-2.7s0-1.68,0-2.68h9.81v8.33l3.1.16v7.31H762.5c-1,5.06-.32,7,2.87,7.63v9.07a10.54,10.54,0,0,1-12.79-9.26c-.19-2.39,0-4.81,0-7.49l-6,.57v16h-9.75Z"/><path class="cls-2" d="M778.08,197h6.24V184.94H794.8v32.31H784.43V205h-6.28v12.27H767.73V184.87h10.35Z"/><path class="cls-2" d="M687.66,199.09c-3.2,0-6.4,0-9.6,0-.35,0-.8-.49-1-.87a6.6,6.6,0,0,0-9.32-2.87,6.67,6.67,0,0,0-2.42,9,6.84,6.84,0,0,0,9.44,2.29,5.35,5.35,0,0,0,2-2,2.22,2.22,0,0,1,2.47-1.43c2.64.1,5.29,0,7.94,0a1.16,1.16,0,0,1,.32.08c.93,5.88-6.25,13.5-13.57,14.4-10,1.23-19-5.57-19.82-15a17.12,17.12,0,0,1,15.77-18.49C679.12,183.66,687.45,190.53,687.66,199.09Z"/><path class="cls-2" d="M725.08,195.2c.09-.64.17-1.13.26-1.73h7.36v23.79h-7.65l-.26-1.22c-8.52,3.44-15.31,2.2-18.61-7.26a12.31,12.31,0,0,1,4.39-13.6C714.83,192.06,719.85,192,725.08,195.2Zm-2.22,10.08a3.85,3.85,0,1,0-7.7,0,3.85,3.85,0,1,0,7.7,0Z"/><path class="cls-2" d="M631.53,208.39v9c-5.41,1.37-11.68-2.49-12.59-7.93a78.79,78.79,0,0,1-.53-8.6l-2.95-.19v-7.1c2.93-1.17,3.1-1.43,3.11-4.73v-4h9.73v8.37l3.13.15v7.3l-2.78.13C627.49,205.36,628.34,207.67,631.53,208.39Z"/><path class="cls-2" d="M644.77,210.3h7.87v6.95H633.47c-.17-3.12-.57-6.08,1.82-8.74,2.2-2.46,4-5.32,6.11-8.29h-7.91v-6.77h19.18c-.09,2.58.87,5.19-1.11,7.64C649.26,203.93,647.21,207,644.77,210.3Z"/><path class="cls-2" d="M507.57,190.57C512.85,195,518,199.24,523,203.51a1.64,1.64,0,0,1,.48.86c1.15,6.53,2.29,13.08,3.47,19.88a13.15,13.15,0,0,1-1.36-.6c-5.67-3.25-11.34-6.48-17-9.8a2.56,2.56,0,0,1-1.23-1.7c-.08-6.93-.05-13.86,0-20.79A5.47,5.47,0,0,1,507.57,190.57Z"/><path class="cls-2" d="M508.21,189.18l13.76-8c1.66-1,3.29-2,5-2.85a2,2,0,0,1,1.64-.06c6.16,3.52,12.28,7.09,18.42,10.66.09,0,.14.16.31.35-4.64,1.7-9.33,3.14-13.78,5.14a12.8,12.8,0,0,1-11.34,0C517.75,192.38,513.05,191,508.21,189.18Z"/><path class="cls-2" d="M548,190.78c.13.19.24.28.24.36,0,7.09.08,14.18.08,21.27a1.48,1.48,0,0,1-.56,1.09c-6.21,3.62-12.45,7.19-19,11,.13-.89.2-1.46.3-2,1-5.66,1.92-11.32,3-17a4.87,4.87,0,0,1,1.49-2.63c4.34-3.75,8.78-7.4,13.19-11.07C547.14,191.43,547.58,191.12,548,190.78Z"/><path class="cls-2" d="M600.81,217.28h-9.54V184.9h9.54Z"/><path class="cls-2" d="M699.31,217.28h-9.68V193.5H697c.09.62.19,1.27.33,2.17,2.5-1.76,5-3,8.15-2.59v9.53a22.05,22.05,0,0,0-3.08.87,4.76,4.76,0,0,0-3.11,4.76C699.35,211.21,699.31,214.19,699.31,217.28Z"/><path class="cls-2" d="M613.91,217.3H604.4V193.47h9.51Z"/><path class="cls-2" d="M609.16,191.32a5,5,0,1,1,0-9.92,5,5,0,1,1,0,9.92Z"/><text class="cls-3" transform="translate(907.22 200.24)">YE SHAL<tspan class="cls-4" x="91.09" y="0">L</tspan><tspan x="102.51" y="0" xml:space="preserve"> KN</tspan><tspan class="cls-5" x="140.42" y="0">O</tspan><tspan class="cls-6" x="157.86" y="0">W</tspan><tspan class="cls-4" x="178.16" y="0"> </tspan><tspan x="185.79" y="0">THE</tspan><tspan class="cls-4" x="226.64" y="0"> </tspan><tspan x="234.28" y="0">TRUTH</tspan><tspan class="cls-7" x="304.77" y="0"> </tspan><tspan x="312.42" y="0">AND</tspan><tspan x="0" y="20.4">THE</tspan><tspan class="cls-4" x="40.85" y="20.4"> </tspan><tspan x="48.48" y="20.4">TRUTH SHAL</tspan><tspan class="cls-4" x="183.17" y="20.4">L</tspan><tspan x="194.6" y="20.4" xml:space="preserve"> SE</tspan><tspan class="cls-4" x="228.7" y="20.4">T</tspan><tspan class="cls-8" x="240.62" y="20.4"> </tspan><tspan class="cls-9" x="248.28" y="20.4">Y</tspan><tspan x="261.81" y="20.4">OU FREE. </tspan></text><rect class="cls-10" x="872.03" y="154.6" width="0.71" height="101.22"/></svg>