<svg id="Layer_1" data-name="Layer 1" xmlns="http://www.w3.org/2000/svg" viewBox="0 0 820 312"><defs><style>.cls-1{font-size:22.67px;fill:#ccc;font-family:Quantify;letter-spacing:0.01em;}.cls-2{letter-spacing:0.02em;}.cls-3{fill:#fff;}.cls-4{fill:#4d4d4d;}</style></defs><rect width="820" height="312"/><text class="cls-1" transform="translate(558.1 163.01)">B<tspan class="cls-2" x="15.21" y="0">e ahead. </tspan><tspan x="113.71" y="0">B</tspan><tspan class="cls-2" x="128.92" y="0">e bold.</tspan></text><path class="cls-3" d="M494.23,173.84h-7.14c0-1.93,0-3.81,0-5.69a1.31,1.31,0,0,0-1.1-1.55,12.07,12.07,0,0,1-8.32-13.72,12.21,12.21,0,0,1,12.15-10.23c5.37,0,9.43,2.35,11.65,7.26a11.59,11.59,0,0,1-2,13.13,17.91,17.91,0,0,1-4.35,3.14,1.46,1.46,0,0,0-.93,1.48C494.26,169.68,494.23,171.69,494.23,173.84Zm.74-18.92a4.93,4.93,0,1,0-4.94,5A4.79,4.79,0,0,0,495,154.92Z"/><path class="cls-3" d="M305.76,166.87V143.2a2,2,0,0,1,.48-.13c3.79,0,7.58,0,11.37.07a9.75,9.75,0,0,1,2.77.51c2.4.75,4.35,2.08,4.87,4.74a5.73,5.73,0,0,1-2.8,6.32c.31.24.54.44.8.62a5.82,5.82,0,0,1-.69,10.21,12.27,12.27,0,0,1-4.6,1.22c-3.45.2-6.92.09-10.38.11Zm7.73-5.87c1.09,0,2.11,0,3.12,0a1.46,1.46,0,0,0,1.56-1.43,1.4,1.4,0,0,0-1.28-1.67,32.09,32.09,0,0,0-3.4,0Zm0-8.95a17.21,17.21,0,0,0,3.15-.06,2.05,2.05,0,0,0,1.3-1.18,1.13,1.13,0,0,0-1-1.53c-1.11-.15-2.25-.15-3.44-.22Z"/><path class="cls-3" d="M433.67,155.09l-2.14-.11v-5.69c1.91.59,2.25-.67,2.8-2,1.15-2.86,4.72-4.71,8.35-4.54v5.44l-1.73.74.1.45c.6,0,1.19,0,1.78,0a2.09,2.09,0,0,0,2.28-2.23c.05-.65,0-1.31,0-2v-2h7.17v6.09l2.27.12v5.35H452.5c-.77,3.69-.23,5.08,2.1,5.57v6.63a7.72,7.72,0,0,1-9.36-6.77c-.14-1.75,0-3.52,0-5.48l-4.42.42v11.71h-7.13Z"/><path class="cls-3" d="M463.89,152h4.56v-8.84h7.66v23.62h-7.58v-9h-4.59v9h-7.62V143.12h7.57Z"/><path class="cls-3" d="M397.78,153.52c-2.34,0-4.68,0-7,0-.25,0-.59-.36-.74-.64a4.82,4.82,0,0,0-6.81-2.09,4.88,4.88,0,0,0-1.77,6.57,5,5,0,0,0,6.9,1.67,4,4,0,0,0,1.44-1.47,1.61,1.61,0,0,1,1.81-1c1.93.07,3.87,0,5.8,0a1.05,1.05,0,0,1,.24.06c.68,4.3-4.58,9.87-9.92,10.53-7.31.9-13.9-4.07-14.5-10.93a12.52,12.52,0,0,1,11.54-13.52C391.53,142.24,397.63,147.26,397.78,153.52Z"/><path class="cls-3" d="M425.14,150.67l.19-1.27h5.38v17.4h-5.59l-.19-.89c-6.24,2.52-11.2,1.61-13.61-5.31a9,9,0,0,1,3.21-9.94C417.64,148.38,421.31,148.35,425.14,150.67ZM423.51,158a2.82,2.82,0,1,0-5.63,0,2.82,2.82,0,1,0,5.63,0Z"/><path class="cls-3" d="M356.74,160.32v6.6c-3.95,1-8.54-1.82-9.2-5.8a60.11,60.11,0,0,1-.4-6.29l-2.15-.14V149.5c2.14-.85,2.27-1.05,2.27-3.45v-2.91h7.12v6.12l2.28.11v5.33l-2,.1C353.78,158.1,354.41,159.79,356.74,160.32Z"/><path class="cls-3" d="M366.42,161.71h5.75v5.08h-14c-.13-2.28-.42-4.44,1.33-6.39,1.6-1.8,2.89-3.88,4.47-6.06h-5.79v-5h14c-.07,1.89.63,3.8-.82,5.59C369.7,157.05,368.2,159.27,366.42,161.71Z"/><path class="cls-3" d="M266.11,147.29c3.86,3.22,7.59,6.33,11.31,9.46a1.14,1.14,0,0,1,.35.62c.84,4.78,1.67,9.57,2.54,14.54a10.14,10.14,0,0,1-1-.43c-4.14-2.38-8.29-4.75-12.4-7.17a1.84,1.84,0,0,1-.9-1.24c-.06-5.07,0-10.14,0-15.21A4.15,4.15,0,0,1,266.11,147.29Z"/><path class="cls-3" d="M266.58,146.27l10.06-5.87c1.21-.7,2.4-1.44,3.64-2.09a1.48,1.48,0,0,1,1.2,0c4.5,2.57,9,5.19,13.46,7.8.07,0,.11.12.23.25-3.39,1.24-6.82,2.3-10.07,3.76a9.42,9.42,0,0,1-8.3,0C273.55,148.61,270.12,147.57,266.58,146.27Z"/><path class="cls-3" d="M295.68,147.44c.09.14.17.2.17.26,0,5.19.06,10.37.06,15.55a1.07,1.07,0,0,1-.41.8c-4.54,2.65-9.1,5.26-13.91,8,.1-.66.15-1.08.22-1.49.72-4.14,1.4-8.28,2.19-12.4a3.57,3.57,0,0,1,1.09-1.92c3.17-2.75,6.42-5.41,9.64-8.1C295,147.91,295.36,147.69,295.68,147.44Z"/><path class="cls-3" d="M334.28,166.82h-7V143.14h7Z"/><path class="cls-3" d="M406.3,166.82h-7.08V149.43h5.39l.25,1.58c1.82-1.28,3.67-2.2,6-1.89v7a15.12,15.12,0,0,0-2.25.64,3.47,3.47,0,0,0-2.28,3.48C406.33,162.38,406.3,164.56,406.3,166.82Z"/><path class="cls-3" d="M343.86,166.83h-7V149.4h7Z"/><path class="cls-3" d="M340.38,147.83a3.63,3.63,0,1,1,3.78-3.55A3.66,3.66,0,0,1,340.38,147.83Z"/><rect class="cls-4" x="532.58" y="119" width="0.52" height="74.01"/></svg>