<svg id="Layer_1" data-name="Layer 1" xmlns="http://www.w3.org/2000/svg" viewBox="0 0 1128 191"><defs><style>.cls-1{font-size:29.03px;fill:#ccc;font-family:Quantify;letter-spacing:0.01em;}.cls-2{letter-spacing:0.03em;}.cls-3{letter-spacing:0.01em;}.cls-4{letter-spacing:0.02em;}.cls-5{fill:#fff;}.cls-6{fill:#4d4d4d;}</style></defs><rect x="0.41" width="1127.59" height="191"/><text class="cls-1" transform="translate(801.11 104.48)">B<tspan class="cls-2" x="19.48" y="0">e ahead. </tspan><tspan class="cls-3" x="145.63" y="0">B</tspan><tspan class="cls-4" x="165.11" y="0">e bold.</tspan></text><path class="cls-5" d="M719.31,118.34h-9.14c0-2.47-.06-4.88,0-7.28a1.67,1.67,0,0,0-1.4-2A15.46,15.46,0,0,1,698.13,91.5a15.62,15.62,0,0,1,15.56-13.09c6.88,0,12.08,3,14.91,9.28,2.72,6,1.8,11.85-2.55,16.82a22.49,22.49,0,0,1-5.58,4,1.87,1.87,0,0,0-1.18,1.9C719.35,113,719.31,115.59,719.31,118.34Zm1-24.22A6.22,6.22,0,0,0,714,87.61a6.3,6.3,0,0,0-6.36,6.62,6.32,6.32,0,1,0,12.64-.11Z"/><path class="cls-5" d="M477.93,109.42V79.11a2.53,2.53,0,0,1,.62-.17c4.85,0,9.71,0,14.56.08a13.09,13.09,0,0,1,3.55.66c3.07,1,5.57,2.67,6.23,6.07a7.33,7.33,0,0,1-3.59,8.1c.4.31.71.56,1,.79,4.95,3.48,4.56,10.42-.88,13.08a15.75,15.75,0,0,1-5.9,1.56c-4.42.25-8.85.12-13.29.14C479.54,109.43,478.81,109.42,477.93,109.42Zm9.91-7.52c1.39,0,2.69,0,4,0a1.87,1.87,0,0,0,2-1.83,1.8,1.8,0,0,0-1.64-2.14,42,42,0,0,0-4.35,0Zm0-11.46a22.32,22.32,0,0,0,4-.07,2.66,2.66,0,0,0,1.67-1.51,1.46,1.46,0,0,0-1.3-2c-1.42-.19-2.88-.19-4.4-.28Z"/><path class="cls-5" d="M641.75,94.34,639,94.19V86.91c2.44.75,2.88-.86,3.59-2.63,1.47-3.67,6-6,10.69-5.81v7l-2.22,1,.14.57c.76,0,1.52,0,2.27,0a2.68,2.68,0,0,0,2.92-2.84c.06-.84,0-1.69,0-2.53s0-1.58,0-2.51h9.18v7.8l2.9.15v6.85h-2.66c-1,4.73-.29,6.51,2.69,7.14v8.49a9.88,9.88,0,0,1-12-8.67c-.18-2.24,0-4.51,0-7l-5.66.54v15h-9.13Z"/><path class="cls-5" d="M680.46,90.39h5.83V79.07h9.82v30.25H686.4V97.84h-5.88v11.49h-9.76V79h9.7Z"/><path class="cls-5" d="M595.78,92.32c-3,0-6,0-9,0-.33,0-.76-.47-.95-.82a6.19,6.19,0,0,0-8.73-2.69,6.25,6.25,0,0,0-2.26,8.42,6.39,6.39,0,0,0,8.83,2.14,5.05,5.05,0,0,0,1.85-1.88,2.09,2.09,0,0,1,2.31-1.34c2.48.1,5,0,7.44,0a1.63,1.63,0,0,1,.3.07c.87,5.51-5.86,12.64-12.71,13.49-9.35,1.15-17.79-5.22-18.56-14a16,16,0,0,1,14.77-17.31C587.78,77.87,595.59,84.3,595.78,92.32Z"/><path class="cls-5" d="M630.82,88.68c.09-.6.16-1.06.24-1.63H638v22.28h-7.17l-.24-1.14c-8,3.22-14.34,2.06-17.42-6.79a11.52,11.52,0,0,1,4.11-12.74C621.22,85.73,625.92,85.7,630.82,88.68Zm-2.08,9.44a3.61,3.61,0,1,0-7.21,0,3.61,3.61,0,1,0,7.21,0Z"/><path class="cls-5" d="M543.22,101v8.45c-5.06,1.28-10.94-2.33-11.78-7.43a73.67,73.67,0,0,1-.5-8l-2.77-.18V87.18c2.75-1.1,2.91-1.35,2.92-4.43V79h9.11v7.84l2.93.13v6.84l-2.6.13C539.44,98.19,540.24,100.35,543.22,101Z"/><path class="cls-5" d="M555.62,102.82H563v6.5H545c-.16-2.92-.53-5.69,1.7-8.19,2.06-2.3,3.7-5,5.73-7.75h-7.42V87h18c-.08,2.42.82,4.86-1,7.15C559.82,96.85,557.9,99.69,555.62,102.82Z"/><path class="cls-5" d="M427.15,84.34c4.94,4.13,9.72,8.12,14.48,12.12a1.43,1.43,0,0,1,.45.8c1.08,6.12,2.15,12.25,3.26,18.62-.57-.25-.95-.37-1.28-.56-5.3-3-10.62-6.08-15.89-9.18a2.39,2.39,0,0,1-1.15-1.59c-.08-6.49,0-13,0-19.47A4.34,4.34,0,0,1,427.15,84.34Z"/><path class="cls-5" d="M427.75,83l12.89-7.52c1.54-.9,3.07-1.84,4.66-2.67a1.86,1.86,0,0,1,1.53,0c5.77,3.29,11.51,6.64,17.25,10a2.74,2.74,0,0,1,.29.32c-4.34,1.59-8.74,2.94-12.9,4.81a12,12,0,0,1-10.63,0C436.69,86,432.28,84.7,427.75,83Z"/><path class="cls-5" d="M465,84.54c.12.18.22.26.23.33,0,6.64.07,13.28.07,19.92a1.34,1.34,0,0,1-.53,1c-5.82,3.39-11.66,6.73-17.81,10.27.12-.84.19-1.38.28-1.91.92-5.3,1.8-10.6,2.8-15.88a4.59,4.59,0,0,1,1.4-2.46c4.06-3.52,8.22-6.92,12.35-10.36C464.2,85.14,464.61,84.85,465,84.54Z"/><path class="cls-5" d="M514.46,109.36h-8.93V79h8.93Z"/><path class="cls-5" d="M606.69,109.36h-9.06V87.08h6.91c.09.59.18,1.19.31,2,2.34-1.64,4.7-2.82,7.63-2.42v8.92a21,21,0,0,0-2.88.82,4.47,4.47,0,0,0-2.92,4.46C606.73,103.67,606.69,106.46,606.69,109.36Z"/><path class="cls-5" d="M526.73,109.37h-8.91V87.05h8.91Z"/><path class="cls-5" d="M522.28,85a4.64,4.64,0,1,1,0-9.28,4.64,4.64,0,1,1,0,9.28Z"/><rect class="cls-6" x="768.42" y="48.11" width="0.66" height="94.78"/></svg>