<svg id="Layer_1" data-name="Layer 1" xmlns="http://www.w3.org/2000/svg" viewBox="0 0 1500 500"><defs><style>.cls-1{font-size:42.32px;fill:#ccc;font-family:Quantify;letter-spacing:0.01em;}.cls-2{letter-spacing:0.03em;}.cls-3{letter-spacing:0.01em;}.cls-4{letter-spacing:0.02em;}.cls-5{fill:#fff;}.cls-6{fill:#4d4d4d;}</style></defs><rect width="1500" height="500"/><text class="cls-1" transform="translate(1007.7 263.1)">B<tspan class="cls-2" x="28.39" y="0">e ahead. </tspan><tspan class="cls-3" x="212.3" y="0">B</tspan><tspan class="cls-4" x="240.7" y="0">e bold.</tspan></text><path class="cls-5" d="M888.44,283.3H875.12c0-3.6-.08-7.11,0-10.62a2.45,2.45,0,0,0-2-2.89c-11-3.5-17.4-14.08-15.54-25.62a22.78,22.78,0,0,1,22.69-19.09c10,0,17.6,4.38,21.74,13.54,4,8.78,2.62,17.26-3.72,24.52-2.15,2.46-5.27,4.15-8.14,5.87-1.25.74-1.76,1.35-1.73,2.77C888.5,275.53,888.44,279.29,888.44,283.3ZM889.83,248c0-5.46-3.89-9.5-9.14-9.49s-9.3,4.1-9.28,9.65a9.21,9.21,0,1,0,18.42-.16Z"/><path class="cls-5" d="M536.57,270.3V226.1a3.68,3.68,0,0,1,.91-.23c7.07,0,14.14,0,21.22.11a18.5,18.5,0,0,1,5.18,1c4.47,1.41,8.12,3.89,9.07,8.85s-.76,8.92-5.22,11.8c.58.45,1,.82,1.49,1.15,7.22,5.09,6.65,15.19-1.28,19.07a22.84,22.84,0,0,1-8.6,2.28c-6.44.37-12.91.17-19.37.21Zm14.44-11c2,0,3.93.05,5.83,0a2.74,2.74,0,0,0,2.91-2.68,2.63,2.63,0,0,0-2.4-3.12c-2.09-.21-4.21-.05-6.34-.05Zm0-16.71a32.49,32.49,0,0,0,5.87-.1,3.91,3.91,0,0,0,2.44-2.2,2.13,2.13,0,0,0-1.89-2.87c-2.08-.28-4.2-.28-6.42-.41Z"/><path class="cls-5" d="M775.39,248.31l-4-.21V237.47c3.57,1.1,4.21-1.24,5.24-3.82,2.14-5.35,8.81-8.8,15.59-8.48v10.15l-3.24,1.4.2.83c1.11,0,2.21,0,3.32,0,2.74-.13,4-1.38,4.25-4.15.09-1.22,0-2.46,0-3.69s0-2.29,0-3.66h13.39v11.38l4.23.22v10h-3.88c-1.43,6.9-.43,9.5,3.93,10.41V270.4A14.38,14.38,0,0,1,797,257.77c-.26-3.27,0-6.57,0-10.23l-8.24.79v21.85H775.39Z"/><path class="cls-5" d="M831.81,242.55h8.51v-16.5h14.31v44.1H840.47V253.42H831.9v16.75H817.68V226h14.13Z"/><path class="cls-5" d="M708.37,245.37c-4.36,0-8.73,0-13.1-.06-.47,0-1.1-.67-1.38-1.19-2.65-4.9-7.91-6.54-12.72-3.91a9.1,9.1,0,0,0-3.3,12.27,9.33,9.33,0,0,0,12.88,3.12,7.26,7.26,0,0,0,2.68-2.74,3,3,0,0,1,3.38-2c3.61.14,7.23.05,10.84.07a1.67,1.67,0,0,1,.44.11c1.27,8-8.54,18.42-18.52,19.65-13.64,1.68-26-7.6-27.07-20.41A23.39,23.39,0,0,1,684,225.09C696.71,224.3,708.09,233.68,708.37,245.37Z"/><path class="cls-5" d="M759.45,240.05c.13-.87.23-1.54.36-2.36h10v32.47H759.41c-.13-.62-.27-1.26-.35-1.66-11.64,4.7-20.91,3-25.4-9.91-2.4-6.86.55-14.57,6-18.56C745.46,235.76,752.31,235.71,759.45,240.05Zm-3,13.76a5.26,5.26,0,1,0-10.51,0,5.26,5.26,0,1,0,10.51,0Z"/><path class="cls-5" d="M631.75,258.06v12.32c-7.38,1.87-16-3.4-17.18-10.83-.63-3.75-.5-7.64-.73-11.73l-4-.26v-9.7c4-1.59,4.24-2,4.25-6.44V226h13.28v11.42l4.27.2v10l-3.78.19C626.23,253.92,627.4,257.08,631.75,258.06Z"/><path class="cls-5" d="M649.82,260.66h10.75v9.49H634.4c-.24-4.26-.77-8.29,2.48-11.94,3-3.35,5.4-7.25,8.35-11.31H634.42v-9.23h26.2c-.13,3.52,1.18,7.08-1.53,10.42C656,252,653.15,256.11,649.82,260.66Z"/><path class="cls-5" d="M462.54,233.73c7.21,6,14.17,11.83,21.11,17.67a2.09,2.09,0,0,1,.66,1.16c1.58,8.93,3.13,17.86,4.74,27.15-.83-.36-1.37-.54-1.86-.82-7.73-4.43-15.47-8.85-23.16-13.37a3.53,3.53,0,0,1-1.68-2.32c-.11-9.47-.06-18.93-.05-28.39A7.52,7.52,0,0,1,462.54,233.73Z"/><path class="cls-5" d="M463.42,231.83l18.78-11c2.26-1.32,4.48-2.69,6.8-3.9a2.72,2.72,0,0,1,2.23-.08c8.41,4.8,16.77,9.69,25.14,14.56.12.07.2.22.43.47-6.33,2.32-12.74,4.28-18.8,7a17.49,17.49,0,0,1-15.5,0C476.44,236.21,470,234.25,463.42,231.83Z"/><path class="cls-5" d="M517.75,234c.18.26.33.37.33.49,0,9.68.1,19.36.1,29a2,2,0,0,1-.77,1.5c-8.48,4.93-17,9.8-26,15,.18-1.22.28-2,.41-2.78,1.34-7.72,2.62-15.45,4.08-23.15a6.76,6.76,0,0,1,2-3.59c5.93-5.12,12-10.09,18-15.11C516.55,234.9,517.15,234.48,517.75,234Z"/><path class="cls-5" d="M589.82,270.2h-13V226h13Z"/><path class="cls-5" d="M724.28,270.2H711.07V237.73h10.06c.13.85.27,1.73.46,3,3.41-2.39,6.85-4.12,11.12-3.54v13a30.1,30.1,0,0,0-4.2,1.2,6.51,6.51,0,0,0-4.25,6.49C724.33,261.91,724.28,266,724.28,270.2Z"/><path class="cls-5" d="M607.71,270.22h-13V237.69h13Z"/><path class="cls-5" d="M601.21,234.75a6.77,6.77,0,1,1,0-13.53,6.77,6.77,0,1,1,0,13.53Z"/><rect class="cls-6" x="960.05" y="180.91" width="0.96" height="138.17"/></svg>