<svg id="Layer_1" data-name="Layer 1" xmlns="http://www.w3.org/2000/svg" viewBox="0 0 2560 1440"><defs><style>.cls-1{font-size:54.66px;fill:#ccc;font-family:Quantify;letter-spacing:0.01em;}.cls-2{letter-spacing:0.02em;}.cls-3{fill:#fff;}.cls-4{fill:#4d4d4d;}</style></defs><rect width="2560" height="1440"/><text class="cls-1" transform="translate(1872.57 736.91)">B<tspan class="cls-2" x="36.67" y="0">e ahead. </tspan><tspan x="274.21" y="0">B</tspan><tspan class="cls-2" x="310.88" y="0">e bold.</tspan></text><path class="cls-3" d="M1718.55,763h-17.21c0-4.65-.1-9.19.05-13.72.06-2.09-.54-3.06-2.65-3.73-14.26-4.52-22.48-18.18-20.08-33.08A29.43,29.43,0,0,1,1708,687.82c12.94,0,22.73,5.65,28.07,17.48,5.12,11.34,3.39,22.3-4.81,31.67-2.77,3.18-6.8,5.36-10.5,7.58-1.61,1-2.28,1.75-2.23,3.58C1718.62,753,1718.55,757.83,1718.55,763Zm1.79-45.61c0-7-5-12.26-11.81-12.25-7,0-12,5.29-12,12.45a11.65,11.65,0,0,0,11.87,11.88C1715.32,729.52,1720.35,724.42,1720.34,717.4Z"/><path class="cls-3" d="M1264.07,746.21V689.13a5.17,5.17,0,0,1,1.17-.3c9.14,0,18.27,0,27.41.15a24,24,0,0,1,6.69,1.23c5.78,1.83,10.49,5,11.72,11.44s-1,11.52-6.75,15.24c.75.58,1.32,1.06,1.93,1.49,9.33,6.56,8.59,19.61-1.66,24.62a29.62,29.62,0,0,1-11.1,3c-8.32.47-16.67.22-25,.26Zm18.65-14.16c2.62,0,5.08.07,7.53,0a3.52,3.52,0,0,0,3.75-3.45c.18-2.19-.94-3.81-3.09-4a79.79,79.79,0,0,0-8.19-.07Zm0-21.58c2.69,0,5.21.32,7.58-.13a5,5,0,0,0,3.15-2.84,2.75,2.75,0,0,0-2.44-3.71c-2.69-.36-5.42-.36-8.29-.52Z"/><path class="cls-3" d="M1572.52,717.82l-5.17-.28V703.82c4.6,1.41,5.43-1.61,6.77-4.94,2.76-6.91,11.37-11.37,20.13-11V701l-4.18,1.8c.08.36.17.72.25,1.08,1.43,0,2.86.05,4.29,0,3.54-.17,5.22-1.78,5.49-5.36.12-1.58.06-3.18.07-4.77s0-3,0-4.72h17.29v14.69l5.47.28v12.9h-5c-1.86,8.9-.56,12.27,5.07,13.45v16c-10.67,2.56-21.71-5.33-22.57-16.31-.33-4.22-.05-8.49-.05-13.21l-10.66,1v28.23h-17.19Z"/><path class="cls-3" d="M1645.4,710.38h11V689.07h18.49V746h-18.29V724.41h-11.06v21.64h-18.37V688.94h18.25Z"/><path class="cls-3" d="M1486,714c-5.64,0-11.29.05-16.92-.07-.62,0-1.42-.88-1.78-1.54-3.43-6.33-10.22-8.45-16.44-5.06-5.39,2.95-7.4,10.41-4.26,15.85a12,12,0,0,0,16.63,4,9.45,9.45,0,0,0,3.47-3.55c1-2,2.2-2.6,4.36-2.52,4.67.18,9.34.07,14,.09a2.37,2.37,0,0,1,.57.14c1.63,10.36-11,23.8-23.93,25.39-17.61,2.17-33.51-9.82-35-26.37s11.31-31.57,27.82-32.59S1485.6,698.92,1486,714Z"/><path class="cls-3" d="M1551.94,707.15c.17-1.13.3-2,.46-3h13V746h-13.48l-.46-2.15c-15,6.07-27,3.88-32.81-12.79-3.09-8.87.72-18.82,7.75-24C1533.87,701.61,1542.71,701.55,1551.94,707.15ZM1548,724.93c-.07-4.15-2.92-6.93-7-6.81a6.53,6.53,0,0,0-6.64,6.85,6.8,6.8,0,1,0,13.59,0Z"/><path class="cls-3" d="M1387,730.41v15.92c-9.53,2.41-20.59-4.39-22.19-14-.81-4.85-.65-9.87-.94-15.15l-5.2-.34V704.33c5.17-2.06,5.48-2.53,5.48-8.33v-7h17.16v14.75l5.51.25v12.88l-4.89.24C1379.88,725.06,1381.38,729.14,1387,730.41Z"/><path class="cls-3" d="M1410.34,733.77h13.89V746h-33.81c-.3-5.5-1-10.72,3.21-15.42,3.88-4.33,7-9.36,10.78-14.61h-14V704.07h33.84c-.17,4.55,1.53,9.14-2,13.46C1418.26,722.53,1414.65,727.89,1410.34,733.77Z"/><path class="cls-3" d="M1168.45,699c9.31,7.78,18.31,15.28,27.27,22.81a2.76,2.76,0,0,1,.85,1.51c2,11.53,4,23.06,6.13,35.06a24.25,24.25,0,0,1-2.4-1c-10-5.73-20-11.44-29.92-17.28a4.53,4.53,0,0,1-2.17-3c-.14-12.22-.09-24.44-.07-36.66A9.94,9.94,0,0,1,1168.45,699Z"/><path class="cls-3" d="M1169.59,696.54l24.26-14.15c2.91-1.7,5.79-3.48,8.78-5a3.54,3.54,0,0,1,2.88-.1c10.87,6.2,21.66,12.51,32.47,18.8.16.09.26.28.55.6-8.17,3-16.45,5.54-24.28,9.07-6.91,3.1-13.09,3.13-20,0C1186.41,702.18,1178.12,699.66,1169.59,696.54Z"/><path class="cls-3" d="M1239.76,699.36c.23.34.42.48.42.63.07,12.5.14,25,.14,37.5a2.6,2.6,0,0,1-1,1.93c-11,6.37-21.95,12.67-33.54,19.33.23-1.58.36-2.59.53-3.6,1.73-10,3.38-19.95,5.27-29.89a8.7,8.7,0,0,1,2.63-4.64c7.66-6.62,15.49-13,23.26-19.51C1238.21,700.5,1239,700,1239.76,699.36Z"/><path class="cls-3" d="M1332.84,746.09H1316V689h16.81Z"/><path class="cls-3" d="M1506.51,746.09h-17.06V704.15h13c.17,1.1.34,2.24.59,3.83,4.4-3.1,8.84-5.32,14.36-4.57v16.8a37.84,37.84,0,0,0-5.42,1.55c-3.55,1.58-5.58,4.27-5.5,8.38C1506.58,735.39,1506.51,740.63,1506.51,746.09Z"/><path class="cls-3" d="M1356,746.12h-16.78v-42H1356Z"/><path class="cls-3" d="M1347.56,700.31a8.75,8.75,0,1,1,0-17.48,8.75,8.75,0,1,1,0,17.48Z"/><rect class="cls-4" x="1811.03" y="630.77" width="1.24" height="178.46"/></svg>